<svg width="335" height="51" viewBox="0 0 335 51" fill="none" xmlns="http://www.w3.org/2000/svg">
<g clip-path="url(#clip0_53_29)">
<circle cx="95" cy="25" r="25" fill="#FF0000" fill-opacity="0.7"/>
<circle cx="60" cy="25" r="25" fill="#E2E2E2" fill-opacity="0.7"/>
<circle cx="25" cy="25" r="25" fill="#FF0000" fill-opacity="0.7"/>
<circle cx="310" cy="25" r="25" fill="#FF0000" fill-opacity="0.7"/>
<circle cx="275" cy="25" r="25" fill="#E2E2E2" fill-opacity="0.7"/>
<circle opacity="0.7" cx="240" cy="25" r="25" fill="#FF0000"/>
<path d="M131.139 21.418C130.729 21.2593 130.43 21.1707 130.243 21.152C130.057 21.1333 129.828 21.1193 129.557 21.11C129.296 21.0913 128.983 21.082 128.619 21.082C128.265 21.082 127.84 21.1053 127.345 21.152V29.51L128.885 29.552C129.847 29.5147 130.556 29.3933 131.013 29.188C132.255 28.6187 132.88 27.3307 132.889 25.324C132.889 24.54 132.801 23.868 132.623 23.308C132.446 22.748 132.255 22.3327 132.049 22.062C131.853 21.7913 131.55 21.5767 131.139 21.418ZM126.379 20.662L129.095 20.592C129.926 20.592 130.654 20.662 131.279 20.802C131.905 20.942 132.479 21.18 133.001 21.516C134.065 22.1973 134.597 23.462 134.597 25.31C134.597 28.4367 132.693 30 128.885 30H124.657V29.636L125.875 29.524V21.138L124.657 20.984V20.62C125.227 20.648 125.801 20.662 126.379 20.662ZM142.952 26.584C142.952 27.62 142.639 28.474 142.014 29.146C141.389 29.818 140.535 30.154 139.452 30.154C138.379 30.154 137.529 29.818 136.904 29.146C136.279 28.474 135.966 27.62 135.966 26.584C135.966 25.548 136.279 24.694 136.904 24.022C137.529 23.35 138.379 23.014 139.452 23.014C140.535 23.014 141.389 23.35 142.014 24.022C142.639 24.694 142.952 25.548 142.952 26.584ZM137.492 26.584C137.492 28.74 138.145 29.818 139.452 29.818C140.768 29.818 141.426 28.74 141.426 26.584C141.426 25.5387 141.277 24.7407 140.978 24.19C140.679 23.6393 140.175 23.364 139.466 23.364C138.757 23.364 138.248 23.6393 137.94 24.19C137.641 24.7407 137.492 25.5387 137.492 26.584ZM153.45 23.07C154.943 23.07 155.69 23.7887 155.69 25.226C155.69 26.262 155.657 27.718 155.592 29.594L156.586 29.664V30H153.464V29.664L154.22 29.608C154.285 27.144 154.318 25.6507 154.318 25.128C154.318 24.596 154.22 24.1993 154.024 23.938C153.828 23.6767 153.511 23.546 153.072 23.546C152.633 23.546 152.227 23.7327 151.854 24.106C151.481 24.47 151.229 24.862 151.098 25.282C151.098 26.29 151.065 27.7273 151 29.594L151.994 29.664V30H148.872V29.664L149.628 29.608C149.693 27.144 149.726 25.6507 149.726 25.128C149.726 24.596 149.628 24.1993 149.432 23.938C149.236 23.6767 148.895 23.546 148.41 23.546C147.934 23.546 147.486 23.8027 147.066 24.316C146.646 24.82 146.436 25.268 146.436 25.66V29.594L147.486 29.664V30H144.154V29.664L145.064 29.608V23.672L143.874 23.616V23.294L146.38 23.126L146.31 24.568H146.45C146.702 24.0733 147.038 23.7 147.458 23.448C147.887 23.196 148.354 23.07 148.858 23.07C150.118 23.07 150.846 23.574 151.042 24.582V24.568C151.294 24.0733 151.63 23.7 152.05 23.448C152.479 23.196 152.946 23.07 153.45 23.07ZM158.296 23.532H157.316V23.168H158.296V22.958C158.296 21.7167 158.558 20.7833 159.08 20.158C159.603 19.5327 160.35 19.22 161.32 19.22C161.899 19.22 162.38 19.332 162.762 19.556C163.154 19.7707 163.35 20.0647 163.35 20.438C163.35 20.802 163.224 21.068 162.972 21.236C162.823 21.3387 162.674 21.39 162.524 21.39C162.384 21.39 162.249 21.362 162.118 21.306C162.174 21.0447 162.202 20.7927 162.202 20.55C162.202 20.3073 162.118 20.0927 161.95 19.906C161.782 19.7193 161.549 19.626 161.25 19.626C160.952 19.626 160.695 19.71 160.48 19.878C160.275 20.0367 160.121 20.228 160.018 20.452C159.916 20.6667 159.836 20.956 159.78 21.32C159.706 21.8053 159.668 22.4213 159.668 23.168H161.782V23.532H159.668V29.594L161.236 29.664L161.25 30H157.358L157.344 29.664L158.296 29.608V23.532ZM163.955 28.488C163.955 29.0947 164.203 29.454 164.697 29.566C164.809 29.594 164.917 29.608 165.019 29.608C165.374 29.608 165.743 29.4587 166.125 29.16C166.508 28.852 166.709 28.4413 166.727 27.928V26.724C164.879 26.7427 163.955 27.3307 163.955 28.488ZM164.515 30.168C163.983 30.168 163.526 30.0233 163.143 29.734C162.77 29.4353 162.583 29.02 162.583 28.488C162.593 27.7693 162.952 27.2327 163.661 26.878C164.38 26.5233 165.402 26.346 166.727 26.346V25.142C166.727 23.9567 166.298 23.364 165.439 23.364C165.001 23.364 164.646 23.546 164.375 23.91C164.189 24.162 164.095 24.4747 164.095 24.848C164.095 25.0067 164.114 25.1747 164.151 25.352C164.021 25.4453 163.885 25.492 163.745 25.492C163.615 25.492 163.484 25.464 163.353 25.408C163.055 25.296 162.905 25.0813 162.905 24.764C162.905 24.3347 163.059 23.98 163.367 23.7C163.871 23.2427 164.567 23.014 165.453 23.014C166.34 23.014 166.984 23.2053 167.385 23.588C167.787 23.9613 167.987 24.554 167.987 25.366V29.608L169.163 29.664L169.177 29.986L166.839 30.154L166.713 28.908C166.284 29.748 165.551 30.168 164.515 30.168ZM173.373 23.014C173.896 23.014 174.4 23.126 174.885 23.35C175.156 23.4713 175.371 23.658 175.529 23.91C175.697 24.162 175.781 24.456 175.781 24.792C175.781 25.128 175.632 25.3567 175.333 25.478C175.212 25.5247 175.081 25.548 174.941 25.548C174.811 25.548 174.675 25.5013 174.535 25.408C174.573 25.212 174.591 24.9833 174.591 24.722C174.591 24.4513 174.507 24.1947 174.339 23.952C174.097 23.588 173.751 23.406 173.303 23.406C172.006 23.406 171.357 24.4747 171.357 26.612C171.357 27.6573 171.507 28.446 171.805 28.978C172.113 29.5007 172.608 29.762 173.289 29.762C174.157 29.762 174.853 29.342 175.375 28.502C175.581 28.5673 175.683 28.67 175.683 28.81C175.683 28.9407 175.595 29.1087 175.417 29.314C175.249 29.51 174.951 29.7013 174.521 29.888C174.101 30.0653 173.616 30.154 173.065 30.154C172.104 30.154 171.325 29.8273 170.727 29.174C170.139 28.5207 169.845 27.6573 169.845 26.584C169.845 25.5107 170.163 24.6473 170.797 23.994C171.441 23.3407 172.3 23.014 173.373 23.014ZM180.161 30.154C179.199 30.154 178.425 29.8273 177.837 29.174C177.249 28.5207 176.955 27.6573 176.955 26.584C176.955 25.5107 177.263 24.6473 177.879 23.994C178.504 23.3407 179.288 23.014 180.231 23.014C181.173 23.014 181.878 23.2287 182.345 23.658C182.811 24.078 183.045 24.666 183.045 25.422C183.045 25.646 183.026 25.87 182.989 26.094H178.467V26.584C178.467 27.6293 178.616 28.4227 178.915 28.964C179.213 29.496 179.703 29.762 180.385 29.762C181.346 29.762 182.088 29.342 182.611 28.502C182.816 28.5673 182.919 28.6653 182.919 28.796C182.919 29.0293 182.704 29.3 182.275 29.608C182.069 29.7573 181.78 29.888 181.407 30C181.033 30.1027 180.618 30.154 180.161 30.154ZM181.715 25.128C181.715 24.6987 181.626 24.33 181.449 24.022C181.206 23.6113 180.814 23.406 180.273 23.406C179.265 23.406 178.677 24.134 178.509 25.59H181.687C181.705 25.4313 181.715 25.2773 181.715 25.128ZM188.538 28.544C188.538 28.572 188.533 28.6047 188.524 28.642C188.374 29.0993 188.122 29.468 187.768 29.748C187.422 30.0187 187.016 30.154 186.55 30.154C186.083 30.154 185.691 30.0233 185.374 29.762C185.066 29.4913 184.912 28.9687 184.912 28.194C184.912 27.9793 184.935 26.4253 184.982 23.532H184.016V23.168H184.996L185.01 21.11H186.382L186.34 23.168H188.342V23.532H186.34C186.293 26.5467 186.27 28.3107 186.27 28.824C186.27 29.4493 186.475 29.762 186.886 29.762C187.138 29.762 187.399 29.6173 187.67 29.328C187.95 29.0387 188.146 28.712 188.258 28.348C188.444 28.348 188.538 28.4133 188.538 28.544ZM193.61 28.544C193.61 28.572 193.605 28.6047 193.596 28.642C193.447 29.0993 193.195 29.468 192.84 29.748C192.495 30.0187 192.089 30.154 191.622 30.154C191.155 30.154 190.763 30.0233 190.446 29.762C190.138 29.4913 189.984 28.9687 189.984 28.194C189.984 27.9793 190.007 26.4253 190.054 23.532H189.088V23.168H190.068L190.082 21.11H191.454L191.412 23.168H193.414V23.532H191.412C191.365 26.5467 191.342 28.3107 191.342 28.824C191.342 29.4493 191.547 29.762 191.958 29.762C192.21 29.762 192.471 29.6173 192.742 29.328C193.022 29.0387 193.218 28.712 193.33 28.348C193.517 28.348 193.61 28.4133 193.61 28.544ZM197.674 30.154C196.713 30.154 195.938 29.8273 195.35 29.174C194.762 28.5207 194.468 27.6573 194.468 26.584C194.468 25.5107 194.776 24.6473 195.392 23.994C196.018 23.3407 196.802 23.014 197.744 23.014C198.687 23.014 199.392 23.2287 199.858 23.658C200.325 24.078 200.558 24.666 200.558 25.422C200.558 25.646 200.54 25.87 200.502 26.094H195.98V26.584C195.98 27.6293 196.13 28.4227 196.428 28.964C196.727 29.496 197.217 29.762 197.898 29.762C198.86 29.762 199.602 29.342 200.124 28.502C200.33 28.5673 200.432 28.6653 200.432 28.796C200.432 29.0293 200.218 29.3 199.788 29.608C199.583 29.7573 199.294 29.888 198.92 30C198.547 30.1027 198.132 30.154 197.674 30.154ZM199.228 25.128C199.228 24.6987 199.14 24.33 198.962 24.022C198.72 23.6113 198.328 23.406 197.786 23.406C196.778 23.406 196.19 24.134 196.022 25.59H199.2C199.219 25.4313 199.228 25.2773 199.228 25.128ZM204.049 24.652C204.469 23.5693 205.314 23.028 206.583 23.028C207.218 23.028 207.731 23.2193 208.123 23.602C208.515 23.9753 208.711 24.512 208.711 25.212C208.711 26.416 208.674 27.8767 208.599 29.594L209.565 29.664V30H206.471V29.664L207.227 29.608C207.302 27.4987 207.339 26.29 207.339 25.982C207.339 25.674 207.335 25.4407 207.325 25.282C207.316 25.114 207.288 24.9133 207.241 24.68C207.204 24.4373 207.143 24.246 207.059 24.106C206.854 23.7607 206.532 23.588 206.093 23.588C205.496 23.588 205.006 23.8353 204.623 24.33C204.241 24.8247 204.049 25.3613 204.049 25.94V29.594L205.099 29.664V30H201.753V29.664L202.677 29.594V23.672L201.487 23.616V23.294L203.993 23.126L203.923 24.638L204.049 24.652Z" fill="#FF0000"/>
</g>
<defs>
<clipPath id="clip0_53_29">
<rect width="335" height="51" fill="white"/>
</clipPath>
</defs>
</svg>
