<svg width="100" height="34" viewBox="0 0 100 34" fill="none" xmlns="http://www.w3.org/2000/svg">
<g clip-path="url(#clip0_59_175)">
<ellipse opacity="0.7" cx="68.0833" cy="17" rx="7.08333" ry="7" fill="#FF0000"/>
<ellipse opacity="0.7" cx="32.0833" cy="17" rx="7.08333" ry="7" fill="#E2E2E2" fill-opacity="0.7"/>
<path d="M98.5 17C98.5 19.1347 97.2412 21.2427 94.7949 23.229C92.3526 25.212 88.7882 27.02 84.3394 28.5479C75.4466 31.602 63.129 33.5 49.5 33.5C35.871 33.5 23.5534 31.602 14.6606 28.5479C10.2118 27.02 6.64737 25.212 4.20513 23.229C1.75882 21.2427 0.5 19.1347 0.5 17C0.5 14.8653 1.75882 12.7573 4.20513 10.771C6.64737 8.78796 10.2118 6.97996 14.6606 5.45207C23.5534 2.39798 35.871 0.5 49.5 0.5C63.129 0.5 75.4466 2.39798 84.3394 5.45207C88.7882 6.97996 92.3526 8.78796 94.7949 10.771C97.2412 12.7573 98.5 14.8653 98.5 17Z" stroke="#FFCF71"/>
<path d="M51.4157 13.418C51.005 13.2593 50.7064 13.1707 50.5197 13.152C50.333 13.1333 50.1044 13.1193 49.8337 13.11C49.5724 13.0913 49.2597 13.082 48.8957 13.082C48.541 13.082 48.1164 13.1053 47.6217 13.152V21.51L49.1617 21.552C50.123 21.5147 50.8324 21.3933 51.2897 21.188C52.531 20.6187 53.1564 19.3307 53.1657 17.324C53.1657 16.54 53.077 15.868 52.8997 15.308C52.7224 14.748 52.531 14.3327 52.3257 14.062C52.1297 13.7913 51.8264 13.5767 51.4157 13.418ZM46.6557 12.662L49.3717 12.592C50.2024 12.592 50.9304 12.662 51.5557 12.802C52.181 12.942 52.755 13.18 53.2777 13.516C54.3417 14.1973 54.8737 15.462 54.8737 17.31C54.8737 20.4367 52.9697 22 49.1617 22H44.9337V21.636L46.1517 21.524V13.138L44.9337 12.984V12.62C45.503 12.648 46.077 12.662 46.6557 12.662Z" fill="#FF0000"/>
</g>
<defs>
<clipPath id="clip0_59_175">
<rect width="100" height="34" fill="white"/>
</clipPath>
</defs>
</svg>
