<svg width="374" height="127" viewBox="0 0 374 127" fill="none" xmlns="http://www.w3.org/2000/svg">
<g clip-path="url(#clip0_53_15)">
<circle cx="115" cy="63" r="25" fill="#FF0000" fill-opacity="0.7"/>
<circle cx="80" cy="63" r="25" fill="#E2E2E2" fill-opacity="0.7"/>
<circle cx="45" cy="63" r="25" fill="#FF0000" fill-opacity="0.7"/>
<circle cx="330" cy="63" r="25" fill="#FF0000" fill-opacity="0.7"/>
<circle cx="295" cy="63" r="25" fill="#E2E2E2" fill-opacity="0.7"/>
<circle opacity="0.7" cx="260" cy="63" r="25" fill="#FF0000"/>
<path d="M373 63.5C373 71.8378 368.025 79.9333 358.679 87.4373C349.341 94.9338 335.768 101.729 318.907 107.454C285.196 118.902 238.559 126 187 126C135.441 126 88.8042 118.902 55.0926 107.454C38.2318 101.729 24.6589 94.9338 15.3214 87.4373C5.97467 79.9333 1 71.8378 1 63.5C1 55.1622 5.97467 47.0667 15.3214 39.5627C24.6589 32.0662 38.2318 25.2711 55.0926 19.5456C88.8042 8.09809 135.441 1 187 1C238.559 1 285.196 8.09809 318.907 19.5456C335.768 25.2711 349.341 32.0662 358.679 39.5627C368.025 47.0667 373 55.1622 373 63.5Z" stroke="#FFCF71" stroke-width="2"/>
<path d="M151.139 59.418C150.729 59.2593 150.43 59.1707 150.243 59.152C150.057 59.1333 149.828 59.1193 149.557 59.11C149.296 59.0913 148.983 59.082 148.619 59.082C148.265 59.082 147.84 59.1053 147.345 59.152V67.51L148.885 67.552C149.847 67.5147 150.556 67.3933 151.013 67.188C152.255 66.6187 152.88 65.3307 152.889 63.324C152.889 62.54 152.801 61.868 152.623 61.308C152.446 60.748 152.255 60.3327 152.049 60.062C151.853 59.7913 151.55 59.5767 151.139 59.418ZM146.379 58.662L149.095 58.592C149.926 58.592 150.654 58.662 151.279 58.802C151.905 58.942 152.479 59.18 153.001 59.516C154.065 60.1973 154.597 61.462 154.597 63.31C154.597 66.4367 152.693 68 148.885 68H144.657V67.636L145.875 67.524V59.138L144.657 58.984V58.62C145.227 58.648 145.801 58.662 146.379 58.662ZM162.952 64.584C162.952 65.62 162.639 66.474 162.014 67.146C161.389 67.818 160.535 68.154 159.452 68.154C158.379 68.154 157.529 67.818 156.904 67.146C156.279 66.474 155.966 65.62 155.966 64.584C155.966 63.548 156.279 62.694 156.904 62.022C157.529 61.35 158.379 61.014 159.452 61.014C160.535 61.014 161.389 61.35 162.014 62.022C162.639 62.694 162.952 63.548 162.952 64.584ZM157.492 64.584C157.492 66.74 158.145 67.818 159.452 67.818C160.768 67.818 161.426 66.74 161.426 64.584C161.426 63.5387 161.277 62.7407 160.978 62.19C160.679 61.6393 160.175 61.364 159.466 61.364C158.757 61.364 158.248 61.6393 157.94 62.19C157.641 62.7407 157.492 63.5387 157.492 64.584ZM173.45 61.07C174.943 61.07 175.69 61.7887 175.69 63.226C175.69 64.262 175.657 65.718 175.592 67.594L176.586 67.664V68H173.464V67.664L174.22 67.608C174.285 65.144 174.318 63.6507 174.318 63.128C174.318 62.596 174.22 62.1993 174.024 61.938C173.828 61.6767 173.511 61.546 173.072 61.546C172.633 61.546 172.227 61.7327 171.854 62.106C171.481 62.47 171.229 62.862 171.098 63.282C171.098 64.29 171.065 65.7273 171 67.594L171.994 67.664V68H168.872V67.664L169.628 67.608C169.693 65.144 169.726 63.6507 169.726 63.128C169.726 62.596 169.628 62.1993 169.432 61.938C169.236 61.6767 168.895 61.546 168.41 61.546C167.934 61.546 167.486 61.8027 167.066 62.316C166.646 62.82 166.436 63.268 166.436 63.66V67.594L167.486 67.664V68H164.154V67.664L165.064 67.608V61.672L163.874 61.616V61.294L166.38 61.126L166.31 62.568H166.45C166.702 62.0733 167.038 61.7 167.458 61.448C167.887 61.196 168.354 61.07 168.858 61.07C170.118 61.07 170.846 61.574 171.042 62.582V62.568C171.294 62.0733 171.63 61.7 172.05 61.448C172.479 61.196 172.946 61.07 173.45 61.07ZM178.296 61.532H177.316V61.168H178.296V60.958C178.296 59.7167 178.558 58.7833 179.08 58.158C179.603 57.5327 180.35 57.22 181.32 57.22C181.899 57.22 182.38 57.332 182.762 57.556C183.154 57.7707 183.35 58.0647 183.35 58.438C183.35 58.802 183.224 59.068 182.972 59.236C182.823 59.3387 182.674 59.39 182.524 59.39C182.384 59.39 182.249 59.362 182.118 59.306C182.174 59.0447 182.202 58.7927 182.202 58.55C182.202 58.3073 182.118 58.0927 181.95 57.906C181.782 57.7193 181.549 57.626 181.25 57.626C180.952 57.626 180.695 57.71 180.48 57.878C180.275 58.0367 180.121 58.228 180.018 58.452C179.916 58.6667 179.836 58.956 179.78 59.32C179.706 59.8053 179.668 60.4213 179.668 61.168H181.782V61.532H179.668V67.594L181.236 67.664L181.25 68H177.358L177.344 67.664L178.296 67.608V61.532ZM183.955 66.488C183.955 67.0947 184.203 67.454 184.697 67.566C184.809 67.594 184.917 67.608 185.019 67.608C185.374 67.608 185.743 67.4587 186.125 67.16C186.508 66.852 186.709 66.4413 186.727 65.928V64.724C184.879 64.7427 183.955 65.3307 183.955 66.488ZM184.515 68.168C183.983 68.168 183.526 68.0233 183.143 67.734C182.77 67.4353 182.583 67.02 182.583 66.488C182.593 65.7693 182.952 65.2327 183.661 64.878C184.38 64.5233 185.402 64.346 186.727 64.346V63.142C186.727 61.9567 186.298 61.364 185.439 61.364C185.001 61.364 184.646 61.546 184.375 61.91C184.189 62.162 184.095 62.4747 184.095 62.848C184.095 63.0067 184.114 63.1747 184.151 63.352C184.021 63.4453 183.885 63.492 183.745 63.492C183.615 63.492 183.484 63.464 183.353 63.408C183.055 63.296 182.905 63.0813 182.905 62.764C182.905 62.3347 183.059 61.98 183.367 61.7C183.871 61.2427 184.567 61.014 185.453 61.014C186.34 61.014 186.984 61.2053 187.385 61.588C187.787 61.9613 187.987 62.554 187.987 63.366V67.608L189.163 67.664L189.177 67.986L186.839 68.154L186.713 66.908C186.284 67.748 185.551 68.168 184.515 68.168ZM193.373 61.014C193.896 61.014 194.4 61.126 194.885 61.35C195.156 61.4713 195.371 61.658 195.529 61.91C195.697 62.162 195.781 62.456 195.781 62.792C195.781 63.128 195.632 63.3567 195.333 63.478C195.212 63.5247 195.081 63.548 194.941 63.548C194.811 63.548 194.675 63.5013 194.535 63.408C194.573 63.212 194.591 62.9833 194.591 62.722C194.591 62.4513 194.507 62.1947 194.339 61.952C194.097 61.588 193.751 61.406 193.303 61.406C192.006 61.406 191.357 62.4747 191.357 64.612C191.357 65.6573 191.507 66.446 191.805 66.978C192.113 67.5007 192.608 67.762 193.289 67.762C194.157 67.762 194.853 67.342 195.375 66.502C195.581 66.5673 195.683 66.67 195.683 66.81C195.683 66.9407 195.595 67.1087 195.417 67.314C195.249 67.51 194.951 67.7013 194.521 67.888C194.101 68.0653 193.616 68.154 193.065 68.154C192.104 68.154 191.325 67.8273 190.727 67.174C190.139 66.5207 189.845 65.6573 189.845 64.584C189.845 63.5107 190.163 62.6473 190.797 61.994C191.441 61.3407 192.3 61.014 193.373 61.014ZM200.161 68.154C199.199 68.154 198.425 67.8273 197.837 67.174C197.249 66.5207 196.955 65.6573 196.955 64.584C196.955 63.5107 197.263 62.6473 197.879 61.994C198.504 61.3407 199.288 61.014 200.231 61.014C201.173 61.014 201.878 61.2287 202.345 61.658C202.811 62.078 203.045 62.666 203.045 63.422C203.045 63.646 203.026 63.87 202.989 64.094H198.467V64.584C198.467 65.6293 198.616 66.4227 198.915 66.964C199.213 67.496 199.703 67.762 200.385 67.762C201.346 67.762 202.088 67.342 202.611 66.502C202.816 66.5673 202.919 66.6653 202.919 66.796C202.919 67.0293 202.704 67.3 202.275 67.608C202.069 67.7573 201.78 67.888 201.407 68C201.033 68.1027 200.618 68.154 200.161 68.154ZM201.715 63.128C201.715 62.6987 201.626 62.33 201.449 62.022C201.206 61.6113 200.814 61.406 200.273 61.406C199.265 61.406 198.677 62.134 198.509 63.59H201.687C201.705 63.4313 201.715 63.2773 201.715 63.128ZM208.538 66.544C208.538 66.572 208.533 66.6047 208.524 66.642C208.374 67.0993 208.122 67.468 207.768 67.748C207.422 68.0187 207.016 68.154 206.55 68.154C206.083 68.154 205.691 68.0233 205.374 67.762C205.066 67.4913 204.912 66.9687 204.912 66.194C204.912 65.9793 204.935 64.4253 204.982 61.532H204.016V61.168H204.996L205.01 59.11H206.382L206.34 61.168H208.342V61.532H206.34C206.293 64.5467 206.27 66.3107 206.27 66.824C206.27 67.4493 206.475 67.762 206.886 67.762C207.138 67.762 207.399 67.6173 207.67 67.328C207.95 67.0387 208.146 66.712 208.258 66.348C208.444 66.348 208.538 66.4133 208.538 66.544ZM213.61 66.544C213.61 66.572 213.605 66.6047 213.596 66.642C213.447 67.0993 213.195 67.468 212.84 67.748C212.495 68.0187 212.089 68.154 211.622 68.154C211.155 68.154 210.763 68.0233 210.446 67.762C210.138 67.4913 209.984 66.9687 209.984 66.194C209.984 65.9793 210.007 64.4253 210.054 61.532H209.088V61.168H210.068L210.082 59.11H211.454L211.412 61.168H213.414V61.532H211.412C211.365 64.5467 211.342 66.3107 211.342 66.824C211.342 67.4493 211.547 67.762 211.958 67.762C212.21 67.762 212.471 67.6173 212.742 67.328C213.022 67.0387 213.218 66.712 213.33 66.348C213.517 66.348 213.61 66.4133 213.61 66.544ZM217.674 68.154C216.713 68.154 215.938 67.8273 215.35 67.174C214.762 66.5207 214.468 65.6573 214.468 64.584C214.468 63.5107 214.776 62.6473 215.392 61.994C216.018 61.3407 216.802 61.014 217.744 61.014C218.687 61.014 219.392 61.2287 219.858 61.658C220.325 62.078 220.558 62.666 220.558 63.422C220.558 63.646 220.54 63.87 220.502 64.094H215.98V64.584C215.98 65.6293 216.13 66.4227 216.428 66.964C216.727 67.496 217.217 67.762 217.898 67.762C218.86 67.762 219.602 67.342 220.124 66.502C220.33 66.5673 220.432 66.6653 220.432 66.796C220.432 67.0293 220.218 67.3 219.788 67.608C219.583 67.7573 219.294 67.888 218.92 68C218.547 68.1027 218.132 68.154 217.674 68.154ZM219.228 63.128C219.228 62.6987 219.14 62.33 218.962 62.022C218.72 61.6113 218.328 61.406 217.786 61.406C216.778 61.406 216.19 62.134 216.022 63.59H219.2C219.219 63.4313 219.228 63.2773 219.228 63.128ZM224.049 62.652C224.469 61.5693 225.314 61.028 226.583 61.028C227.218 61.028 227.731 61.2193 228.123 61.602C228.515 61.9753 228.711 62.512 228.711 63.212C228.711 64.416 228.674 65.8767 228.599 67.594L229.565 67.664V68H226.471V67.664L227.227 67.608C227.302 65.4987 227.339 64.29 227.339 63.982C227.339 63.674 227.335 63.4407 227.325 63.282C227.316 63.114 227.288 62.9133 227.241 62.68C227.204 62.4373 227.143 62.246 227.059 62.106C226.854 61.7607 226.532 61.588 226.093 61.588C225.496 61.588 225.006 61.8353 224.623 62.33C224.241 62.8247 224.049 63.3613 224.049 63.94V67.594L225.099 67.664V68H221.753V67.664L222.677 67.594V61.672L221.487 61.616V61.294L223.993 61.126L223.923 62.638L224.049 62.652Z" fill="#FF0000"/>
</g>
<defs>
<clipPath id="clip0_53_15">
<rect width="374" height="127" fill="white"/>
</clipPath>
</defs>
</svg>
